<svg width="60" height="60" viewBox="0 0 60 60" fill="none" xmlns="http://www.w3.org/2000/svg">
<path d="M53.9294 10.4292C51.15 7.54393 47.4177 5.84099 43.4206 5.63805C42.9265 5.61158 42.5118 5.98217 42.4853 6.46746C42.4677 6.96158 42.8383 7.37629 43.3235 7.39394C46.8794 7.57923 50.1883 9.08805 52.6588 11.6557C57.9177 17.0998 57.6883 26.0557 52.1294 31.6057L31.9147 51.8204C30.8824 52.8528 29.2147 52.8528 28.1824 51.8292L7.61473 31.2616C5.32943 28.9763 4.01473 26.091 3.64414 23.1086H10.4912L15.1147 31.1204C15.2824 31.4204 15.6177 31.588 15.9618 31.5528C16.3059 31.5263 16.5971 31.2881 16.7118 30.9616L21.5647 16.7557L25.6324 39.8292C25.6941 40.2086 26.003 40.4998 26.3735 40.5528C26.4177 40.5528 26.4618 40.5616 26.4971 40.5616C26.8324 40.5616 27.1412 40.3675 27.2912 40.0586L32.9294 28.4469L34.4118 37.0057C34.4735 37.3939 34.7912 37.6939 35.1794 37.738C35.5765 37.7822 35.9471 37.5616 36.0971 37.1998L39.45 29.1528H41.1088C41.4971 30.6528 42.8559 31.7645 44.4706 31.7645C46.403 31.7645 47.9735 30.1939 47.9735 28.2704C47.9735 26.3469 46.403 24.7763 44.4706 24.7763C42.8559 24.7763 41.4971 25.8881 41.1088 27.3881H38.8588C38.5059 27.3881 38.1794 27.5998 38.0471 27.9351L35.6294 33.7233L34.2 25.4469C34.1294 25.0675 33.8294 24.7763 33.45 24.7233C33.0706 24.6704 32.7 24.8645 32.5324 25.2086L26.8941 36.838L22.703 13.0763C22.6412 12.6792 22.3059 12.3792 21.9088 12.3439C21.503 12.3175 21.1324 12.5557 21 12.9439L15.6706 28.5528L11.7618 21.7851C11.603 21.5116 11.3118 21.3439 10.9941 21.3439H3.52943C3.52943 17.7704 4.89708 14.1969 7.61473 11.4792C13.0588 6.03511 21.9265 6.04394 27.3794 11.4969C28.0853 12.2028 28.7294 13.0057 29.3118 13.8881C29.4706 14.1439 29.753 14.3292 30.053 14.2939C30.3618 14.2939 30.6353 14.1351 30.7941 13.8792C31.3236 13.0322 31.9677 12.2204 32.7 11.4704C34.6853 9.49393 37.1824 8.16158 39.9265 7.63217C40.403 7.54393 40.7118 7.07629 40.6236 6.59982C40.5265 6.12335 40.0677 5.8057 39.5824 5.90276C36.503 6.50276 33.6883 7.99394 31.4471 10.2263C30.9353 10.7469 30.4588 11.2939 30.0353 11.8675C29.5941 11.2851 29.1265 10.7469 28.6324 10.2439C22.4912 4.10276 12.503 4.10276 6.36178 10.2351C3.1059 13.491 1.59708 17.841 1.80002 22.1292C1.7912 22.1645 1.78237 22.191 1.78237 22.2263C1.78237 22.2881 1.80002 22.341 1.80884 22.3939C2.04708 26.0822 3.5559 29.6998 6.36178 32.5145L26.9383 53.0733C27.7941 53.9292 28.9235 54.3616 30.0441 54.3616C31.1735 54.3616 32.303 53.9292 33.1588 53.0733L53.3824 32.8498C59.6118 26.6204 59.8588 16.5616 53.9294 10.4292V10.4292ZM44.4706 26.541C45.4236 26.541 46.2088 27.3175 46.2088 28.2704C46.2088 29.2233 45.4236 29.9998 44.4706 29.9998C43.5177 29.9998 42.7412 29.2233 42.7412 28.2704C42.7412 27.3175 43.5177 26.541 44.4706 26.541V26.541Z" fill="#166202"/>
</svg>
